<?xml version="1.0" encoding="UTF-8"?>
<svg id="Calque_1" xmlns="http://www.w3.org/2000/svg" xmlns:xlink="http://www.w3.org/1999/xlink" version="1.1" viewBox="0 0 3424 8875">
  <!-- Generator: Adobe Illustrator 29.3.0, SVG Export Plug-In . SVG Version: 2.1.0 Build 146)  -->
  <defs>
    <style>
      .st0 {
        fill: url(#Dégradé_sans_nom_9);
      }

      .st1 {
        fill: url(#Dégradé_sans_nom_6);
      }

      .st2 {
        fill: url(#Dégradé_sans_nom_7);
      }

      .st3 {
        fill: url(#Dégradé_sans_nom_4);
      }

      .st4 {
        fill: url(#Dégradé_sans_nom_5);
      }

      .st5 {
        fill: url(#Dégradé_sans_nom_2);
      }

      .st6 {
        fill: url(#Dégradé_sans_nom_3);
      }

      .st7 {
        fill: url(#Dégradé_sans_nom_8);
      }

      .st8 {
        fill: url(#Dégradé_sans_nom);
      }

      .st9 {
        opacity: .2;
      }

      .st10 {
        opacity: .2;
      }

      .st11 {
        fill: #00051e;
      }
    </style>
    <radialGradient id="Dégradé_sans_nom" data-name="Dégradé sans nom" cx="1397.5" cy="4853.6" fx="1397.5" fy="4853.6" r="1" gradientTransform="translate(-3013422.5 1826974.7) rotate(49.1) scale(430 -715)" gradientUnits="userSpaceOnUse">
      <stop offset=".4" stop-color="#1932b3"/>
      <stop offset="1" stop-color="#d6e0ef"/>
    </radialGradient>
    <radialGradient id="Dégradé_sans_nom_2" data-name="Dégradé sans nom 2" cx="1408" cy="4847.5" fx="1408" fy="4847.5" r="1" gradientTransform="translate(-3387890.8 -1036865.9) rotate(94.9) scale(532.8 -715)" gradientUnits="userSpaceOnUse">
      <stop offset=".2" stop-color="#1932b3"/>
      <stop offset=".9" stop-color="#90bdff"/>
    </radialGradient>
    <radialGradient id="Dégradé_sans_nom_3" data-name="Dégradé sans nom 3" cx="1406.6" cy="4840.9" fx="1406.6" fy="4840.9" r="1" gradientTransform="translate(-1942964 -710708) rotate(90) scale(509 -401.5)" gradientUnits="userSpaceOnUse">
      <stop offset=".2" stop-color="#1932b3"/>
      <stop offset=".9" stop-color="#90bdff"/>
    </radialGradient>
    <radialGradient id="Dégradé_sans_nom_4" data-name="Dégradé sans nom 4" cx="1397.5" cy="4853.6" fx="1397.5" fy="4853.6" r="1" gradientTransform="translate(-3013556.5 1824756.7) rotate(49.1) scale(430 -715)" gradientUnits="userSpaceOnUse">
      <stop offset=".2" stop-color="#1932b3"/>
      <stop offset=".9" stop-color="#90bdff"/>
    </radialGradient>
    <radialGradient id="Dégradé_sans_nom_5" data-name="Dégradé sans nom 5" cx="1408" cy="4847.5" fx="1408" fy="4847.5" r="1" gradientTransform="translate(-3387597.8 -1039431.9) rotate(94.9) scale(532.8 -715)" gradientUnits="userSpaceOnUse">
      <stop offset=".2" stop-color="#1932b3"/>
      <stop offset=".9" stop-color="#90bdff"/>
    </radialGradient>
    <radialGradient id="Dégradé_sans_nom_6" data-name="Dégradé sans nom 6" cx="1397.5" cy="4853.6" fx="1397.5" fy="4853.6" r="1" gradientTransform="translate(-3014878.5 1822044.7) rotate(49.1) scale(430 -715)" gradientUnits="userSpaceOnUse">
      <stop offset=".4" stop-color="#1932b3"/>
      <stop offset="1" stop-color="#d6e0ef"/>
    </radialGradient>
    <radialGradient id="Dégradé_sans_nom_7" data-name="Dégradé sans nom 7" cx="1406.7" cy="4841" fx="1406.7" fy="4841" r="1" gradientTransform="translate(-1941062 -714010) rotate(90) scale(509 -401.5)" gradientUnits="userSpaceOnUse">
      <stop offset=".2" stop-color="#1932b3"/>
      <stop offset=".9" stop-color="#90bdff"/>
    </radialGradient>
    <radialGradient id="Dégradé_sans_nom_8" data-name="Dégradé sans nom 8" cx="1404" cy="4846.5" fx="1404" fy="4846.5" r="1" gradientTransform="translate(-2985586 -526032) rotate(90) scale(375 -616.5)" gradientUnits="userSpaceOnUse">
      <stop offset=".2" stop-color="#1932b3"/>
      <stop offset=".9" stop-color="#90bdff"/>
    </radialGradient>
    <radialGradient id="Dégradé_sans_nom_9" data-name="Dégradé sans nom 9" cx="1409.4" cy="4846.9" fx="1409.4" fy="4846.9" r="1" gradientTransform="translate(-3199358.6 -1460332.1) rotate(104.6) scale(430 -715)" gradientUnits="userSpaceOnUse">
      <stop offset=".2" stop-color="#1932b3"/>
      <stop offset=".9" stop-color="#90bdff"/>
    </radialGradient>
  </defs>
  <rect class="st11" width="3424" height="8875"/>
  <g class="st9">
    <path class="st8" d="M2833.1,7248.9c155.6,179.4,39.8,534.6-258.5,793.3-298.4,258.7-666.3,322.9-821.9,143.5-155.6-179.4-39.8-534.6,258.5-793.3,298.4-258.7,666.3-322.9,821.9-143.5Z"/>
  </g>
  <g class="st10">
    <path class="st5" d="M2078.3,6589.9c-25.1,293.2-364.4,503.5-757.9,469.8-393.4-33.7-692-298.7-666.9-591.9,25.1-293.2,364.4-503.5,757.9-469.8,393.4,33.7,692,298.7,666.9,591.9Z"/>
  </g>
  <g class="st9">
    <path class="st6" d="M1044,5265c0,281.1-179.8,509-401.5,509s-401.5-227.9-401.5-509,179.8-509,401.5-509,401.5,227.9,401.5,509Z"/>
  </g>
  <g class="st9">
    <path class="st3" d="M3142,5030.9c155.6,179.4,39.8,534.6-258.6,793.3-298.4,258.7-666.3,322.9-821.9,143.5-155.6-179.4-39.8-534.6,258.6-793.3,298.4-258.7,666.3-322.9,821.9-143.5Z"/>
  </g>
  <g class="st10">
    <path class="st4" d="M2371.3,4023.9c-25.1,293.2-364.4,503.5-757.9,469.8-393.4-33.7-692-298.7-666.9-591.9,25.1-293.2,364.4-503.5,757.9-469.8s692,298.7,666.9,591.9Z"/>
  </g>
  <g class="st9">
    <path class="st1" d="M1377.1,2318.9c155.6,179.4,39.8,534.6-258.6,793.3-298.4,258.7-666.3,322.9-821.9,143.5-155.6-179.4-39.8-534.6,258.5-793.3,298.4-258.7,666.3-322.9,821.9-143.5Z"/>
  </g>
  <g class="st9">
    <path class="st2" d="M3008,1982.5c0,281.1-179.8,509-401.5,509s-401.5-227.9-401.5-509,179.8-509,401.5-509,401.5,227.9,401.5,509Z"/>
  </g>
  <g class="st9">
    <path class="st7" d="M2892,465c0,207.1-276,375-616.5,375s-616.5-167.9-616.5-375,276-375,616.5-375,616.5,167.9,616.5,375Z"/>
  </g>
  <g class="st9">
    <path class="st0" d="M1492.2,1424.2c-60,229.8-418.3,335.2-800.4,235.5-382.1-99.7-643.2-366.8-583.2-596.6,60-229.8,418.3-335.2,800.4-235.5,382.1,99.7,643.2,366.8,583.2,596.6Z"/>
  </g>
</svg>